<svg width="54" height="54" viewBox="0 0 54 54" fill="none" xmlns="http://www.w3.org/2000/svg">
<rect width="54" height="54" rx="20" fill="white"/>
<path d="M22.5001 29.6677L13.5799 20.7475C13.4755 20.6431 13.3515 20.5602 13.215 20.5036C13.0785 20.4471 12.9322 20.418 12.7844 20.418C12.6367 20.418 12.4904 20.4471 12.3539 20.5036C12.2174 20.5602 12.0934 20.6431 11.9889 20.7475L6.42045 26.3163C6.20954 26.5272 6.09106 26.8133 6.09106 27.1117C6.09106 27.41 6.20954 27.6961 6.42045 27.907L18.4509 39.9375" stroke="black"/>
<path d="M47.7861 16.7702L42.2176 11.2017C41.7783 10.7624 41.066 10.7624 40.6266 11.2017L15.9663 35.8621C15.5269 36.3014 15.5269 37.0137 15.9663 37.4531L21.5347 43.0215C21.9741 43.4609 22.6864 43.4609 23.1257 43.0215L47.7861 18.3612C48.2254 17.9219 48.2254 17.2096 47.7861 16.7702Z" stroke="black" stroke-linejoin="round"/>
</svg>
